<svg width="211" height="211" viewBox="0 0 211 211" fill="none" xmlns="http://www.w3.org/2000/svg">
<path d="M105.5 52.75C98.9794 52.75 92.6052 54.6836 87.1836 58.3062C81.7619 61.9289 77.5362 67.0779 75.0409 73.1022C72.5455 79.1264 71.8926 85.7553 73.1648 92.1506C74.4369 98.5459 77.5768 104.42 82.1876 109.031C86.7984 113.642 92.6728 116.782 99.0681 118.054C105.463 119.326 112.092 118.673 118.117 116.178C124.141 113.683 129.29 109.457 132.913 104.035C136.535 98.6135 138.469 92.2393 138.469 85.7187C138.469 76.9749 134.995 68.5892 128.812 62.4063C122.63 56.2235 114.244 52.75 105.5 52.75ZM105.5 105.5C101.588 105.5 97.7632 104.34 94.5101 102.166C91.2571 99.9927 88.7217 96.9033 87.2245 93.2887C85.7273 89.6742 85.3356 85.6968 86.0989 81.8596C86.8621 78.0224 88.7461 74.4977 91.5126 71.7313C94.279 68.9648 97.8037 67.0809 101.641 66.3176C105.478 65.5543 109.455 65.9461 113.07 67.4433C116.685 68.9405 119.774 71.4759 121.948 74.7289C124.121 77.9819 125.281 81.8064 125.281 85.7187C125.276 90.9635 123.19 95.9919 119.482 99.7004C115.773 103.409 110.745 105.495 105.5 105.5Z" fill="black"/>
<path d="M105.5 13.1875C87.2424 13.1875 69.3947 18.6015 54.214 28.745C39.0332 38.8884 27.2013 53.3056 20.2144 70.1735C13.2275 87.0414 11.3994 105.602 14.9613 123.509C18.5232 141.416 27.3151 157.865 40.2252 170.775C53.1354 183.685 69.5839 192.477 87.4908 196.039C105.398 199.601 123.959 197.773 140.826 190.786C157.694 183.799 172.112 171.967 182.255 156.786C192.398 141.605 197.813 123.758 197.813 105.5C197.785 81.0258 188.05 57.5619 170.744 40.256C153.438 22.9501 129.974 13.2154 105.5 13.1875ZM65.9375 173.923V164.844C65.9428 159.599 68.0285 154.571 71.7371 150.862C75.4457 147.153 80.4741 145.068 85.7188 145.062H125.281C130.526 145.068 135.554 147.153 139.263 150.862C142.972 154.571 145.057 159.599 145.063 164.844V173.923C133.056 180.934 119.403 184.628 105.5 184.628C91.597 184.628 77.9437 180.934 65.9375 173.923ZM158.197 164.356C158.066 155.707 154.542 147.456 148.385 141.38C142.228 135.305 133.931 131.891 125.281 131.875H85.7188C77.069 131.891 68.7718 135.305 62.6149 141.38C56.458 147.456 52.9342 155.707 52.8028 164.356C40.8454 153.679 32.4131 139.622 28.6224 124.046C24.8317 108.47 25.8614 92.1104 31.5751 77.1328C37.2889 62.1552 47.4171 49.2663 60.6188 40.1729C73.8205 31.0794 89.4729 26.2103 105.503 26.2103C121.534 26.2103 137.186 31.0794 150.388 40.1729C163.59 49.2663 173.718 62.1552 179.432 77.1328C185.145 92.1104 186.175 108.47 182.384 124.046C178.594 139.622 170.155 153.679 158.197 164.356Z" fill="black"/>
</svg>
