<svg width="19" height="18" viewBox="0 0 19 18" fill="none" xmlns="http://www.w3.org/2000/svg">
<path d="M6.2331 5.77514L6.49238 5.73772L6.60921 5.50325L8.92818 0.84933C9.16053 0.383519 9.83811 0.383491 10.072 0.849666C10.0721 0.8498 10.0721 0.849933 10.0722 0.850067L12.3908 5.50325L12.5076 5.73772L12.7669 5.77514L17.9555 6.52387L17.9559 6.52392C18.4814 6.59937 18.6786 7.2316 18.3085 7.58827L18.3084 7.58841L14.5546 11.2091L14.3637 11.3932L14.409 11.6545L15.2968 16.7687C15.2968 16.7688 15.2969 16.7688 15.2969 16.7689C15.3829 17.2674 14.8458 17.671 14.3725 17.4246L14.3724 17.4246L9.73077 15.0097L9.5 14.8896L9.26923 15.0097L4.62755 17.4246L4.62599 17.4254C4.15615 17.672 3.61661 17.2704 3.70314 16.7689C3.70315 16.7688 3.70316 16.7688 3.70317 16.7687L4.59096 11.6545L4.63632 11.3932L4.44544 11.2091L0.691614 7.58841L0.691472 7.58827C0.321386 7.2316 0.518623 6.59937 1.04415 6.52392L1.04451 6.52387L6.2331 5.77514Z" fill="white" stroke="#F6C06C"/>
</svg>
